<svg width="307" height="159" viewBox="0 0 307 159" fill="none" xmlns="http://www.w3.org/2000/svg">
<g id="texto">
<path id="negro" d="M5.87785 127L15.8879 46.7H26.9979L48.3379 107.42H48.5579L69.8979 46.7H81.0079L91.0179 127H81.9979L74.6279 60.01H74.4079L53.2879 118.2H43.6079L22.4879 60.01H22.2679L14.8979 127H5.87785ZM108.165 127V46.7H117.295V127H108.165ZM176.812 128.1C167.865 128.1 160.165 126.45 153.712 123.15C147.332 119.85 142.419 115.12 138.972 108.96C135.525 102.727 133.802 95.3567 133.802 86.85C133.802 78.27 135.525 70.9 138.972 64.74C142.419 58.58 147.295 53.85 153.602 50.55C159.982 47.25 167.572 45.6 176.372 45.6C181.212 45.6 185.795 46.15 190.122 47.25C194.449 48.2767 198.372 49.89 201.892 52.09L199.582 59.68C196.355 57.7 192.725 56.1967 188.692 55.17C184.732 54.1433 180.625 53.63 176.372 53.63C169.479 53.63 163.539 54.95 158.552 57.59C153.639 60.23 149.825 64.0433 147.112 69.03C144.472 73.9433 143.152 79.8833 143.152 86.85C143.152 93.8167 144.472 99.7933 147.112 104.78C149.825 109.693 153.675 113.47 158.662 116.11C163.722 118.75 169.772 120.07 176.812 120.07C180.699 120.07 184.549 119.667 188.362 118.86C192.249 118.053 195.622 116.917 198.482 115.45L196.832 118.86V89.27H166.802V81.68H205.632V121.94C201.819 123.847 197.345 125.35 192.212 126.45C187.079 127.55 181.945 128.1 176.812 128.1ZM260.662 128.1C252.449 128.1 245.225 126.413 238.992 123.04C232.832 119.593 228.065 114.79 224.692 108.63C221.319 102.397 219.632 95.1367 219.632 86.85C219.632 78.49 221.319 71.23 224.692 65.07C228.065 58.91 232.832 54.1433 238.992 50.77C245.225 47.3233 252.449 45.6 260.662 45.6C269.022 45.6 276.245 47.3233 282.332 50.77C288.492 54.1433 293.259 58.91 296.632 65.07C300.079 71.23 301.802 78.49 301.802 86.85C301.802 95.1367 300.079 102.397 296.632 108.63C293.259 114.79 288.492 119.593 282.332 123.04C276.245 126.413 269.022 128.1 260.662 128.1ZM260.662 120.07C267.189 120.07 272.835 118.713 277.602 116C282.442 113.213 286.182 109.363 288.822 104.45C291.462 99.4633 292.782 93.5967 292.782 86.85C292.782 80.1033 291.462 74.2733 288.822 69.36C286.182 64.3733 282.442 60.5233 277.602 57.81C272.835 55.0233 267.189 53.63 260.662 53.63C254.209 53.63 248.562 55.0233 243.722 57.81C238.882 60.5233 235.142 64.3733 232.502 69.36C229.935 74.2733 228.652 80.1033 228.652 86.85C228.652 93.5967 229.935 99.4633 232.502 104.45C235.142 109.363 238.882 113.213 243.722 116C248.562 118.713 254.209 120.07 260.662 120.07Z" fill="black"/>
<path id="blanco" d="M5.87785 127L15.8879 46.7H26.9979L48.3379 107.42H48.5579L69.8979 46.7H81.0079L91.0179 127H81.9979L74.6279 60.01H74.4079L53.2879 118.2H43.6079L22.4879 60.01H22.2679L14.8979 127H5.87785ZM108.165 127V46.7H117.295V127H108.165ZM176.812 128.1C167.865 128.1 160.165 126.45 153.712 123.15C147.332 119.85 142.419 115.12 138.972 108.96C135.525 102.727 133.802 95.3567 133.802 86.85C133.802 78.27 135.525 70.9 138.972 64.74C142.419 58.58 147.295 53.85 153.602 50.55C159.982 47.25 167.572 45.6 176.372 45.6C181.212 45.6 185.795 46.15 190.122 47.25C194.449 48.2767 198.372 49.89 201.892 52.09L199.582 59.68C196.355 57.7 192.725 56.1967 188.692 55.17C184.732 54.1433 180.625 53.63 176.372 53.63C169.479 53.63 163.539 54.95 158.552 57.59C153.639 60.23 149.825 64.0433 147.112 69.03C144.472 73.9433 143.152 79.8833 143.152 86.85C143.152 93.8167 144.472 99.7933 147.112 104.78C149.825 109.693 153.675 113.47 158.662 116.11C163.722 118.75 169.772 120.07 176.812 120.07C180.699 120.07 184.549 119.667 188.362 118.86C192.249 118.053 195.622 116.917 198.482 115.45L196.832 118.86V89.27H166.802V81.68H205.632V121.94C201.819 123.847 197.345 125.35 192.212 126.45C187.079 127.55 181.945 128.1 176.812 128.1ZM260.662 128.1C252.449 128.1 245.225 126.413 238.992 123.04C232.832 119.593 228.065 114.79 224.692 108.63C221.319 102.397 219.632 95.1367 219.632 86.85C219.632 78.49 221.319 71.23 224.692 65.07C228.065 58.91 232.832 54.1433 238.992 50.77C245.225 47.3233 252.449 45.6 260.662 45.6C269.022 45.6 276.245 47.3233 282.332 50.77C288.492 54.1433 293.259 58.91 296.632 65.07C300.079 71.23 301.802 78.49 301.802 86.85C301.802 95.1367 300.079 102.397 296.632 108.63C293.259 114.79 288.492 119.593 282.332 123.04C276.245 126.413 269.022 128.1 260.662 128.1ZM260.662 120.07C267.189 120.07 272.835 118.713 277.602 116C282.442 113.213 286.182 109.363 288.822 104.45C291.462 99.4633 292.782 93.5967 292.782 86.85C292.782 80.1033 291.462 74.2733 288.822 69.36C286.182 64.3733 282.442 60.5233 277.602 57.81C272.835 55.0233 267.189 53.63 260.662 53.63C254.209 53.63 248.562 55.0233 243.722 57.81C238.882 60.5233 235.142 64.3733 232.502 69.36C229.935 74.2733 228.652 80.1033 228.652 86.85C228.652 93.5967 229.935 99.4633 232.502 104.45C235.142 109.363 238.882 113.213 243.722 116C248.562 118.713 254.209 120.07 260.662 120.07Z" fill="white"/>
<path id="colores" d="M5.87785 127L15.8879 46.7H26.9979L48.3379 107.42H48.5579L69.8979 46.7H81.0079L91.0179 127H81.9979L74.6279 60.01H74.4079L53.2879 118.2H43.6079L22.4879 60.01H22.2679L14.8979 127H5.87785ZM108.165 127V46.7H117.295V127H108.165ZM176.812 128.1C167.865 128.1 160.165 126.45 153.712 123.15C147.332 119.85 142.419 115.12 138.972 108.96C135.525 102.727 133.802 95.3567 133.802 86.85C133.802 78.27 135.525 70.9 138.972 64.74C142.419 58.58 147.295 53.85 153.602 50.55C159.982 47.25 167.572 45.6 176.372 45.6C181.212 45.6 185.795 46.15 190.122 47.25C194.449 48.2767 198.372 49.89 201.892 52.09L199.582 59.68C196.355 57.7 192.725 56.1967 188.692 55.17C184.732 54.1433 180.625 53.63 176.372 53.63C169.479 53.63 163.539 54.95 158.552 57.59C153.639 60.23 149.825 64.0433 147.112 69.03C144.472 73.9433 143.152 79.8833 143.152 86.85C143.152 93.8167 144.472 99.7933 147.112 104.78C149.825 109.693 153.675 113.47 158.662 116.11C163.722 118.75 169.772 120.07 176.812 120.07C180.699 120.07 184.549 119.667 188.362 118.86C192.249 118.053 195.622 116.917 198.482 115.45L196.832 118.86V89.27H166.802V81.68H205.632V121.94C201.819 123.847 197.345 125.35 192.212 126.45C187.079 127.55 181.945 128.1 176.812 128.1ZM260.662 128.1C252.449 128.1 245.225 126.413 238.992 123.04C232.832 119.593 228.065 114.79 224.692 108.63C221.319 102.397 219.632 95.1367 219.632 86.85C219.632 78.49 221.319 71.23 224.692 65.07C228.065 58.91 232.832 54.1433 238.992 50.77C245.225 47.3233 252.449 45.6 260.662 45.6C269.022 45.6 276.245 47.3233 282.332 50.77C288.492 54.1433 293.259 58.91 296.632 65.07C300.079 71.23 301.802 78.49 301.802 86.85C301.802 95.1367 300.079 102.397 296.632 108.63C293.259 114.79 288.492 119.593 282.332 123.04C276.245 126.413 269.022 128.1 260.662 128.1ZM260.662 120.07C267.189 120.07 272.835 118.713 277.602 116C282.442 113.213 286.182 109.363 288.822 104.45C291.462 99.4633 292.782 93.5967 292.782 86.85C292.782 80.1033 291.462 74.2733 288.822 69.36C286.182 64.3733 282.442 60.5233 277.602 57.81C272.835 55.0233 267.189 53.63 260.662 53.63C254.209 53.63 248.562 55.0233 243.722 57.81C238.882 60.5233 235.142 64.3733 232.502 69.36C229.935 74.2733 228.652 80.1033 228.652 86.85C228.652 93.5967 229.935 99.4633 232.502 104.45C235.142 109.363 238.882 113.213 243.722 116C248.562 118.713 254.209 120.07 260.662 120.07Z" fill="url(#paint0_linear_2_151)"/>
</g>
<defs>
<linearGradient id="paint0_linear_2_151" x1="307" y1="80" x2="1.9388e-06" y2="80" gradientUnits="userSpaceOnUse">
<stop stop-color="#D00F55"/>
<stop offset="0.288557" stop-color="#76227E"/>
<stop offset="0.324529" stop-color="#D00F55"/>
<stop offset="0.569412" stop-color="#76227E"/>
<stop offset="0.606312" stop-color="#D00F55"/>
<stop offset="0.661319" stop-color="#76227E"/>
<stop offset="0.685297" stop-color="#D00F55"/>
<stop offset="1" stop-color="#76227E"/>
</linearGradient>
</defs>
</svg>
