<svg width="621" height="535" viewBox="0 0 621 535" fill="none" xmlns="http://www.w3.org/2000/svg">
<g id="logo">
<g id="texto">
<path id="negro" d="M173.878 490L183.888 409.7H194.998L216.338 470.42H216.558L237.898 409.7H249.008L259.018 490H249.998L242.628 423.01H242.408L221.288 481.2H211.608L190.488 423.01H190.268L182.898 490H173.878ZM276.165 490V409.7H285.295V490H276.165ZM344.812 491.1C335.865 491.1 328.165 489.45 321.712 486.15C315.332 482.85 310.419 478.12 306.972 471.96C303.525 465.727 301.802 458.357 301.802 449.85C301.802 441.27 303.525 433.9 306.972 427.74C310.419 421.58 315.295 416.85 321.602 413.55C327.982 410.25 335.572 408.6 344.372 408.6C349.212 408.6 353.795 409.15 358.122 410.25C362.449 411.277 366.372 412.89 369.892 415.09L367.582 422.68C364.355 420.7 360.725 419.197 356.692 418.17C352.732 417.143 348.625 416.63 344.372 416.63C337.479 416.63 331.539 417.95 326.552 420.59C321.639 423.23 317.825 427.043 315.112 432.03C312.472 436.943 311.152 442.883 311.152 449.85C311.152 456.817 312.472 462.793 315.112 467.78C317.825 472.693 321.675 476.47 326.662 479.11C331.722 481.75 337.772 483.07 344.812 483.07C348.699 483.07 352.549 482.667 356.362 481.86C360.249 481.053 363.622 479.917 366.482 478.45L364.832 481.86V452.27H334.802V444.68H373.632V484.94C369.819 486.847 365.345 488.35 360.212 489.45C355.079 490.55 349.945 491.1 344.812 491.1ZM428.662 491.1C420.449 491.1 413.225 489.413 406.992 486.04C400.832 482.593 396.065 477.79 392.692 471.63C389.319 465.397 387.632 458.137 387.632 449.85C387.632 441.49 389.319 434.23 392.692 428.07C396.065 421.91 400.832 417.143 406.992 413.77C413.225 410.323 420.449 408.6 428.662 408.6C437.022 408.6 444.245 410.323 450.332 413.77C456.492 417.143 461.259 421.91 464.632 428.07C468.079 434.23 469.802 441.49 469.802 449.85C469.802 458.137 468.079 465.397 464.632 471.63C461.259 477.79 456.492 482.593 450.332 486.04C444.245 489.413 437.022 491.1 428.662 491.1ZM428.662 483.07C435.189 483.07 440.835 481.713 445.602 479C450.442 476.213 454.182 472.363 456.822 467.45C459.462 462.463 460.782 456.597 460.782 449.85C460.782 443.103 459.462 437.273 456.822 432.36C454.182 427.373 450.442 423.523 445.602 420.81C440.835 418.023 435.189 416.63 428.662 416.63C422.209 416.63 416.562 418.023 411.722 420.81C406.882 423.523 403.142 427.373 400.502 432.36C397.935 437.273 396.652 443.103 396.652 449.85C396.652 456.597 397.935 462.463 400.502 467.45C403.142 472.363 406.882 476.213 411.722 479C416.562 481.713 422.209 483.07 428.662 483.07Z" fill="black"/>
<path id="blanco" d="M173.878 490L183.888 409.7H194.998L216.338 470.42H216.558L237.898 409.7H249.008L259.018 490H249.998L242.628 423.01H242.408L221.288 481.2H211.608L190.488 423.01H190.268L182.898 490H173.878ZM276.165 490V409.7H285.295V490H276.165ZM344.812 491.1C335.865 491.1 328.165 489.45 321.712 486.15C315.332 482.85 310.419 478.12 306.972 471.96C303.525 465.727 301.802 458.357 301.802 449.85C301.802 441.27 303.525 433.9 306.972 427.74C310.419 421.58 315.295 416.85 321.602 413.55C327.982 410.25 335.572 408.6 344.372 408.6C349.212 408.6 353.795 409.15 358.122 410.25C362.449 411.277 366.372 412.89 369.892 415.09L367.582 422.68C364.355 420.7 360.725 419.197 356.692 418.17C352.732 417.143 348.625 416.63 344.372 416.63C337.479 416.63 331.539 417.95 326.552 420.59C321.639 423.23 317.825 427.043 315.112 432.03C312.472 436.943 311.152 442.883 311.152 449.85C311.152 456.817 312.472 462.793 315.112 467.78C317.825 472.693 321.675 476.47 326.662 479.11C331.722 481.75 337.772 483.07 344.812 483.07C348.699 483.07 352.549 482.667 356.362 481.86C360.249 481.053 363.622 479.917 366.482 478.45L364.832 481.86V452.27H334.802V444.68H373.632V484.94C369.819 486.847 365.345 488.35 360.212 489.45C355.079 490.55 349.945 491.1 344.812 491.1ZM428.662 491.1C420.449 491.1 413.225 489.413 406.992 486.04C400.832 482.593 396.065 477.79 392.692 471.63C389.319 465.397 387.632 458.137 387.632 449.85C387.632 441.49 389.319 434.23 392.692 428.07C396.065 421.91 400.832 417.143 406.992 413.77C413.225 410.323 420.449 408.6 428.662 408.6C437.022 408.6 444.245 410.323 450.332 413.77C456.492 417.143 461.259 421.91 464.632 428.07C468.079 434.23 469.802 441.49 469.802 449.85C469.802 458.137 468.079 465.397 464.632 471.63C461.259 477.79 456.492 482.593 450.332 486.04C444.245 489.413 437.022 491.1 428.662 491.1ZM428.662 483.07C435.189 483.07 440.835 481.713 445.602 479C450.442 476.213 454.182 472.363 456.822 467.45C459.462 462.463 460.782 456.597 460.782 449.85C460.782 443.103 459.462 437.273 456.822 432.36C454.182 427.373 450.442 423.523 445.602 420.81C440.835 418.023 435.189 416.63 428.662 416.63C422.209 416.63 416.562 418.023 411.722 420.81C406.882 423.523 403.142 427.373 400.502 432.36C397.935 437.273 396.652 443.103 396.652 449.85C396.652 456.597 397.935 462.463 400.502 467.45C403.142 472.363 406.882 476.213 411.722 479C416.562 481.713 422.209 483.07 428.662 483.07Z" fill="white"/>
<path id="colores" d="M173.878 490L183.888 409.7H194.998L216.338 470.42H216.558L237.898 409.7H249.008L259.018 490H249.998L242.628 423.01H242.408L221.288 481.2H211.608L190.488 423.01H190.268L182.898 490H173.878ZM276.165 490V409.7H285.295V490H276.165ZM344.812 491.1C335.865 491.1 328.165 489.45 321.712 486.15C315.332 482.85 310.419 478.12 306.972 471.96C303.525 465.727 301.802 458.357 301.802 449.85C301.802 441.27 303.525 433.9 306.972 427.74C310.419 421.58 315.295 416.85 321.602 413.55C327.982 410.25 335.572 408.6 344.372 408.6C349.212 408.6 353.795 409.15 358.122 410.25C362.449 411.277 366.372 412.89 369.892 415.09L367.582 422.68C364.355 420.7 360.725 419.197 356.692 418.17C352.732 417.143 348.625 416.63 344.372 416.63C337.479 416.63 331.539 417.95 326.552 420.59C321.639 423.23 317.825 427.043 315.112 432.03C312.472 436.943 311.152 442.883 311.152 449.85C311.152 456.817 312.472 462.793 315.112 467.78C317.825 472.693 321.675 476.47 326.662 479.11C331.722 481.75 337.772 483.07 344.812 483.07C348.699 483.07 352.549 482.667 356.362 481.86C360.249 481.053 363.622 479.917 366.482 478.45L364.832 481.86V452.27H334.802V444.68H373.632V484.94C369.819 486.847 365.345 488.35 360.212 489.45C355.079 490.55 349.945 491.1 344.812 491.1ZM428.662 491.1C420.449 491.1 413.225 489.413 406.992 486.04C400.832 482.593 396.065 477.79 392.692 471.63C389.319 465.397 387.632 458.137 387.632 449.85C387.632 441.49 389.319 434.23 392.692 428.07C396.065 421.91 400.832 417.143 406.992 413.77C413.225 410.323 420.449 408.6 428.662 408.6C437.022 408.6 444.245 410.323 450.332 413.77C456.492 417.143 461.259 421.91 464.632 428.07C468.079 434.23 469.802 441.49 469.802 449.85C469.802 458.137 468.079 465.397 464.632 471.63C461.259 477.79 456.492 482.593 450.332 486.04C444.245 489.413 437.022 491.1 428.662 491.1ZM428.662 483.07C435.189 483.07 440.835 481.713 445.602 479C450.442 476.213 454.182 472.363 456.822 467.45C459.462 462.463 460.782 456.597 460.782 449.85C460.782 443.103 459.462 437.273 456.822 432.36C454.182 427.373 450.442 423.523 445.602 420.81C440.835 418.023 435.189 416.63 428.662 416.63C422.209 416.63 416.562 418.023 411.722 420.81C406.882 423.523 403.142 427.373 400.502 432.36C397.935 437.273 396.652 443.103 396.652 449.85C396.652 456.597 397.935 462.463 400.502 467.45C403.142 472.363 406.882 476.213 411.722 479C416.562 481.713 422.209 483.07 428.662 483.07Z" fill="url(#paint0_linear_2_143)"/>
</g>
<g id="ojo">
<circle id="interno negro" cx="321" cy="213" r="44" stroke="black" stroke-width="36"/>
<path id="elipse color" d="M439 212.5C439 228.568 429.057 245.706 407.613 259.769C386.341 273.719 355.775 283 321 283C286.225 283 255.659 273.719 234.387 259.769C212.943 245.706 203 228.568 203 212.5C203 196.432 212.943 179.294 234.387 165.231C255.659 151.281 286.225 142 321 142C355.775 142 386.341 151.281 407.613 165.231C429.057 179.294 439 196.432 439 212.5Z" stroke="url(#paint1_linear_2_143)" stroke-width="40"/>
<circle id="externo negro" cx="321.5" cy="212.5" r="151" stroke="black" stroke-width="33"/>
</g>
</g>
<defs>
<linearGradient id="paint0_linear_2_143" x1="475" y1="443" x2="168" y2="443" gradientUnits="userSpaceOnUse">
<stop stop-color="#D00F55"/>
<stop offset="0.288557" stop-color="#76227E"/>
<stop offset="0.324529" stop-color="#D00F55"/>
<stop offset="0.569412" stop-color="#76227E"/>
<stop offset="0.606312" stop-color="#D00F55"/>
<stop offset="0.661319" stop-color="#76227E"/>
<stop offset="0.685297" stop-color="#D00F55"/>
<stop offset="1" stop-color="#76227E"/>
</linearGradient>
<linearGradient id="paint1_linear_2_143" x1="183" y1="213" x2="459" y2="213" gradientUnits="userSpaceOnUse">
<stop stop-color="#76227E"/>
<stop offset="1" stop-color="#D00F55"/>
</linearGradient>
</defs>
</svg>
