<svg width="2198" height="1743" viewBox="0 0 2198 1743" fill="none" xmlns="http://www.w3.org/2000/svg">
<g id="toggle">
<path id="lineas" fill-rule="evenodd" clip-rule="evenodd" d="M355.606 516.213H1842.39C1931.64 516.213 2004 443.857 2004 354.606C2004 265.356 1931.64 193 1842.39 193H355.606C266.355 193.007 194 265.355 194 354.613C194 443.864 266.355 516.213 355.606 516.213ZM1842.39 710.143H355.606C266.355 710.143 194 782.498 194 871.749C194 961.007 266.355 1033.36 355.606 1033.36H1842.39C1931.64 1033.36 2004 961.007 2004 871.749C2004 782.498 1931.64 710.143 1842.39 710.143ZM1842.39 1227.29H355.606C266.355 1227.29 194 1299.63 194 1388.89C194 1478.14 266.355 1550.5 355.606 1550.5H1842.39C1931.64 1550.5 2004 1478.14 2004 1388.89C2004 1299.63 1931.64 1227.29 1842.39 1227.29Z" fill="#D00F55"/>
</g>
</svg>
