<svg width="2538" height="1962" viewBox="0 0 2538 1962" fill="none" xmlns="http://www.w3.org/2000/svg">
<g id="typewriter 1" clip-path="url(#clip0_9_2)">
<path id="Vector" d="M2036.08 275.514L2143.95 259.436L2126.91 184.39L2062.24 216.963L1928.82 166.673C1926.92 161.764 1923.63 157.515 1919.35 154.442C1915.08 151.37 1910 149.608 1904.75 149.371C1899.49 149.134 1894.28 150.432 1889.74 153.107C1885.21 155.782 1881.55 159.718 1879.22 164.436C1876.88 169.153 1875.97 174.449 1876.59 179.676C1877.22 184.903 1879.34 189.836 1882.72 193.874C1886.1 197.911 1890.58 200.879 1895.61 202.415C1900.65 203.951 1906.02 203.989 1911.07 202.524L2036.08 275.514Z" fill="#FFB6B6"/>
<path id="Vector_2" d="M2255.32 219.413C2246.98 251.031 2054.81 286.696 2054.91 279.856C2055.18 260.415 2067.54 219.623 2060.48 209.041C2056.45 202.989 2110.79 187.524 2110.79 187.524C2110.79 187.524 2140.78 175.979 2179.66 161.888C2190.58 157.7 2202.38 156.343 2213.97 157.944C2225.55 159.545 2236.54 164.051 2245.92 171.043C2245.92 171.043 2263.66 187.794 2255.32 219.413Z" fill="#76227E"/>
<g id="teclas">
<path id="Vector_3" d="M396.341 1536.13H329.562C314.647 1536.13 300.344 1542.06 289.798 1552.61C279.251 1563.15 273.327 1577.46 273.327 1592.38C273.327 1607.29 279.251 1621.6 289.798 1632.15C300.344 1642.69 314.647 1648.62 329.562 1648.62H396.341C411.255 1648.62 425.559 1642.69 436.105 1632.15C446.651 1621.6 452.576 1607.29 452.576 1592.38C452.576 1577.46 446.651 1563.15 436.105 1552.61C425.559 1542.06 411.255 1536.13 396.341 1536.13Z" fill="#76227E"/>
<path id="Vector_4" d="M610.736 1536.13H543.957C529.043 1536.13 514.739 1542.06 504.193 1552.61C493.647 1563.15 487.722 1577.46 487.722 1592.38C487.722 1607.29 493.647 1621.6 504.193 1632.15C514.739 1642.69 529.043 1648.62 543.957 1648.62H610.736C625.651 1648.62 639.954 1642.69 650.5 1632.15C661.047 1621.6 666.971 1607.29 666.971 1592.38C666.971 1577.46 661.047 1563.15 650.5 1552.61C639.954 1542.06 625.651 1536.13 610.736 1536.13Z" fill="#76227E"/>
<path id="Vector_5" d="M825.132 1536.13H758.353C743.439 1536.13 729.135 1542.06 718.589 1552.61C708.043 1563.15 702.118 1577.46 702.118 1592.38C702.118 1607.29 708.043 1621.6 718.589 1632.15C729.135 1642.69 743.439 1648.62 758.353 1648.62H825.132C840.047 1648.62 854.35 1642.69 864.896 1632.15C875.443 1621.6 881.367 1607.29 881.367 1592.38C881.367 1577.46 875.443 1563.15 864.896 1552.61C854.35 1542.06 840.047 1536.13 825.132 1536.13Z" fill="#76227E"/>
<path id="Vector_6" d="M1039.53 1536.13H972.749C957.835 1536.13 943.531 1542.06 932.985 1552.61C922.439 1563.15 916.514 1577.46 916.514 1592.38C916.514 1607.29 922.439 1621.6 932.985 1632.15C943.531 1642.69 957.835 1648.62 972.749 1648.62H1039.53C1054.44 1648.62 1068.75 1642.69 1079.29 1632.15C1089.84 1621.6 1095.76 1607.29 1095.76 1592.38C1095.76 1577.46 1089.84 1563.15 1079.29 1552.61C1068.75 1542.06 1054.44 1536.13 1039.53 1536.13Z" fill="#76227E"/>
<path id="Vector_7" d="M1253.92 1536.13H1187.15C1172.23 1536.13 1157.93 1542.06 1147.38 1552.61C1136.83 1563.15 1130.91 1577.46 1130.91 1592.38C1130.91 1607.29 1136.83 1621.6 1147.38 1632.15C1157.93 1642.69 1172.23 1648.62 1187.15 1648.62H1253.92C1268.84 1648.62 1283.14 1642.69 1293.69 1632.15C1304.23 1621.6 1310.16 1607.29 1310.16 1592.38C1310.16 1577.46 1304.23 1563.15 1293.69 1552.61C1283.14 1542.06 1268.84 1536.13 1253.92 1536.13Z" fill="#76227E"/>
<path id="Vector_8" d="M1468.32 1536.13H1401.54C1386.63 1536.13 1372.32 1542.06 1361.78 1552.61C1351.23 1563.15 1345.31 1577.46 1345.31 1592.38C1345.31 1607.29 1351.23 1621.6 1361.78 1632.15C1372.32 1642.69 1386.63 1648.62 1401.54 1648.62H1468.32C1483.23 1648.62 1497.54 1642.69 1508.08 1632.15C1518.63 1621.6 1524.56 1607.29 1524.56 1592.38C1524.56 1577.46 1518.63 1563.15 1508.08 1552.61C1497.54 1542.06 1483.23 1536.13 1468.32 1536.13Z" fill="#76227E"/>
<path id="Vector_9" d="M1682.72 1536.13H1615.94C1601.02 1536.13 1586.72 1542.06 1576.17 1552.61C1565.63 1563.15 1559.7 1577.46 1559.7 1592.38C1559.7 1607.29 1565.63 1621.6 1576.17 1632.15C1586.72 1642.69 1601.02 1648.62 1615.94 1648.62H1682.72C1697.63 1648.62 1711.93 1642.69 1722.48 1632.15C1733.03 1621.6 1738.95 1607.29 1738.95 1592.38C1738.95 1577.46 1733.03 1563.15 1722.48 1552.61C1711.93 1542.06 1697.63 1536.13 1682.72 1536.13Z" fill="#76227E"/>
<path id="Vector_10" d="M1897.11 1536.13H1830.33C1815.42 1536.13 1801.11 1542.06 1790.57 1552.61C1780.02 1563.15 1774.1 1577.46 1774.1 1592.38C1774.1 1607.29 1780.02 1621.6 1790.57 1632.15C1801.11 1642.69 1815.42 1648.62 1830.33 1648.62H1897.11C1912.03 1648.62 1926.33 1642.69 1936.88 1632.15C1947.42 1621.6 1953.35 1607.29 1953.35 1592.38C1953.35 1577.46 1947.42 1563.15 1936.88 1552.61C1926.33 1542.06 1912.03 1536.13 1897.11 1536.13Z" fill="#76227E"/>
<path id="Vector_11" d="M2111.51 1536.13H2044.73C2029.81 1536.13 2015.51 1542.06 2004.96 1552.61C1994.42 1563.15 1988.49 1577.46 1988.49 1592.38C1988.49 1607.29 1994.42 1621.6 2004.96 1632.15C2015.51 1642.69 2029.81 1648.62 2044.73 1648.62H2111.51C2126.42 1648.62 2140.73 1642.69 2151.27 1632.15C2161.82 1621.6 2167.74 1607.29 2167.74 1592.38C2167.74 1577.46 2161.82 1563.15 2151.27 1552.61C2140.73 1542.06 2126.42 1536.13 2111.51 1536.13Z" fill="#76227E"/>
<path id="Vector_12" d="M396.341 1300.62H329.562C314.647 1300.62 300.344 1306.54 289.798 1317.09C279.251 1327.64 273.327 1341.94 273.327 1356.86C273.327 1371.78 279.251 1386.08 289.798 1396.63C300.344 1407.18 314.647 1413.1 329.562 1413.1H396.341C411.255 1413.1 425.559 1407.18 436.105 1396.63C446.651 1386.08 452.576 1371.78 452.576 1356.86C452.576 1341.94 446.651 1327.64 436.105 1317.09C425.559 1306.54 411.255 1300.62 396.341 1300.62Z" fill="#76227E"/>
<path id="Vector_13" d="M610.736 1300.62H543.957C529.043 1300.62 514.739 1306.54 504.193 1317.09C493.647 1327.64 487.722 1341.94 487.722 1356.86C487.722 1371.78 493.647 1386.08 504.193 1396.63C514.739 1407.18 529.043 1413.1 543.957 1413.1H610.736C625.651 1413.1 639.954 1407.18 650.5 1396.63C661.047 1386.08 666.971 1371.78 666.971 1356.86C666.971 1341.94 661.047 1327.64 650.5 1317.09C639.954 1306.54 625.651 1300.62 610.736 1300.62Z" fill="#76227E"/>
<path id="Vector_14" d="M1039.53 1300.62H972.749C957.835 1300.62 943.531 1306.54 932.985 1317.09C922.439 1327.64 916.514 1341.94 916.514 1356.86C916.514 1371.78 922.439 1386.08 932.985 1396.63C943.531 1407.18 957.835 1413.1 972.749 1413.1H1039.53C1054.44 1413.1 1068.75 1407.18 1079.29 1396.63C1089.84 1386.08 1095.76 1371.78 1095.76 1356.86C1095.76 1341.94 1089.84 1327.64 1079.29 1317.09C1068.75 1306.54 1054.44 1300.62 1039.53 1300.62Z" fill="#76227E"/>
<path id="Vector_15" d="M1253.92 1300.62H1187.15C1172.23 1300.62 1157.93 1306.54 1147.38 1317.09C1136.83 1327.64 1130.91 1341.94 1130.91 1356.86C1130.91 1371.78 1136.83 1386.08 1147.38 1396.63C1157.93 1407.18 1172.23 1413.1 1187.15 1413.1H1253.92C1268.84 1413.1 1283.14 1407.18 1293.69 1396.63C1304.23 1386.08 1310.16 1371.78 1310.16 1356.86C1310.16 1341.94 1304.23 1327.64 1293.69 1317.09C1283.14 1306.54 1268.84 1300.62 1253.92 1300.62Z" fill="#76227E"/>
<path id="Vector_16" d="M1468.32 1300.62H1401.54C1386.63 1300.62 1372.32 1306.54 1361.78 1317.09C1351.23 1327.64 1345.31 1341.94 1345.31 1356.86C1345.31 1371.78 1351.23 1386.08 1361.78 1396.63C1372.32 1407.18 1386.63 1413.1 1401.54 1413.1H1468.32C1483.23 1413.1 1497.54 1407.18 1508.08 1396.63C1518.63 1386.08 1524.56 1371.78 1524.56 1356.86C1524.56 1341.94 1518.63 1327.64 1508.08 1317.09C1497.54 1306.54 1483.23 1300.62 1468.32 1300.62Z" fill="#76227E"/>
<path id="Vector_17" d="M1682.72 1300.62H1615.94C1601.02 1300.62 1586.72 1306.54 1576.17 1317.09C1565.63 1327.64 1559.7 1341.94 1559.7 1356.86C1559.7 1371.78 1565.63 1386.08 1576.17 1396.63C1586.72 1407.18 1601.02 1413.1 1615.94 1413.1H1682.72C1697.63 1413.1 1711.93 1407.18 1722.48 1396.63C1733.03 1386.08 1738.95 1371.78 1738.95 1356.86C1738.95 1341.94 1733.03 1327.64 1722.48 1317.09C1711.93 1306.54 1697.63 1300.62 1682.72 1300.62Z" fill="#76227E"/>
<path id="Vector_18" d="M1897.11 1300.62H1830.33C1815.42 1300.62 1801.11 1306.54 1790.57 1317.09C1780.02 1327.64 1774.1 1341.94 1774.1 1356.86C1774.1 1371.78 1780.02 1386.08 1790.57 1396.63C1801.11 1407.18 1815.42 1413.1 1830.33 1413.1H1897.11C1912.03 1413.1 1926.33 1407.18 1936.88 1396.63C1947.42 1386.08 1953.35 1371.78 1953.35 1356.86C1953.35 1341.94 1947.42 1327.64 1936.88 1317.09C1926.33 1306.54 1912.03 1300.62 1897.11 1300.62Z" fill="#76227E"/>
<path id="Vector_19" d="M2111.51 1300.62H2044.73C2029.81 1300.62 2015.51 1306.54 2004.96 1317.09C1994.42 1327.64 1988.49 1341.94 1988.49 1356.86C1988.49 1371.78 1994.42 1386.08 2004.96 1396.63C2015.51 1407.18 2029.81 1413.1 2044.73 1413.1H2111.51C2126.42 1413.1 2140.73 1407.18 2151.27 1396.63C2161.82 1386.08 2167.74 1371.78 2167.74 1356.86C2167.74 1341.94 2161.82 1327.64 2151.27 1317.09C2140.73 1306.54 2126.42 1300.62 2111.51 1300.62Z" fill="#76227E"/>
<path id="Vector_20" d="M496.509 1421.89H429.73C414.816 1421.89 400.512 1427.82 389.966 1438.36C379.42 1448.91 373.495 1463.22 373.495 1478.13C373.495 1493.05 379.42 1507.35 389.966 1517.9C400.512 1528.45 414.816 1534.38 429.73 1534.38H496.509C511.424 1534.38 525.727 1528.45 536.273 1517.9C546.819 1507.35 552.744 1493.05 552.744 1478.13C552.744 1463.22 546.819 1448.91 536.273 1438.36C525.727 1427.82 511.424 1421.89 496.509 1421.89Z" fill="#76227E"/>
<path id="Vector_21" d="M710.905 1421.89H644.126C629.212 1421.89 614.908 1427.82 604.362 1438.36C593.816 1448.91 587.891 1463.22 587.891 1478.13C587.891 1493.05 593.816 1507.35 604.362 1517.9C614.908 1528.45 629.212 1534.38 644.126 1534.38H710.905C725.82 1534.38 740.123 1528.45 750.669 1517.9C761.215 1507.35 767.14 1493.05 767.14 1478.13C767.14 1463.22 761.215 1448.91 750.669 1438.36C740.123 1427.82 725.82 1421.89 710.905 1421.89Z" fill="#76227E"/>
<path id="Vector_22" d="M925.301 1421.89H858.522C843.608 1421.89 829.304 1427.82 818.758 1438.36C808.212 1448.91 802.287 1463.22 802.287 1478.13C802.287 1493.05 808.212 1507.35 818.758 1517.9C829.304 1528.45 843.608 1534.38 858.522 1534.38H925.301C940.216 1534.38 954.519 1528.45 965.065 1517.9C975.611 1507.35 981.536 1493.05 981.536 1478.13C981.536 1463.22 975.611 1448.91 965.065 1438.36C954.519 1427.82 940.216 1421.89 925.301 1421.89Z" fill="#76227E"/>
<path id="Vector_23" d="M1139.7 1421.89H1072.92C1058 1421.89 1043.7 1427.82 1033.15 1438.36C1022.61 1448.91 1016.68 1463.22 1016.68 1478.13C1016.68 1493.05 1022.61 1507.35 1033.15 1517.9C1043.7 1528.45 1058 1534.38 1072.92 1534.38H1139.7C1154.61 1534.38 1168.91 1528.45 1179.46 1517.9C1190.01 1507.35 1195.93 1493.05 1195.93 1478.13C1195.93 1463.22 1190.01 1448.91 1179.46 1438.36C1168.91 1427.82 1154.61 1421.89 1139.7 1421.89Z" fill="#76227E"/>
<path id="Vector_24" d="M1354.09 1421.89H1287.31C1272.4 1421.89 1258.1 1427.82 1247.55 1438.36C1237 1448.91 1231.08 1463.22 1231.08 1478.13C1231.08 1493.05 1237 1507.35 1247.55 1517.9C1258.1 1528.45 1272.4 1534.38 1287.31 1534.38H1354.09C1369.01 1534.38 1383.31 1528.45 1393.86 1517.9C1404.4 1507.35 1410.33 1493.05 1410.33 1478.13C1410.33 1463.22 1404.4 1448.91 1393.86 1438.36C1383.31 1427.82 1369.01 1421.89 1354.09 1421.89Z" fill="#76227E"/>
<path id="Vector_25" d="M1568.49 1421.89H1501.71C1486.8 1421.89 1472.49 1427.82 1461.95 1438.36C1451.4 1448.91 1445.47 1463.22 1445.47 1478.13C1445.47 1493.05 1451.4 1507.35 1461.95 1517.9C1472.49 1528.45 1486.8 1534.38 1501.71 1534.38H1568.49C1583.4 1534.38 1597.71 1528.45 1608.25 1517.9C1618.8 1507.35 1624.72 1493.05 1624.72 1478.13C1624.72 1463.22 1618.8 1448.91 1608.25 1438.36C1597.71 1427.82 1583.4 1421.89 1568.49 1421.89Z" fill="#76227E"/>
<path id="Vector_26" d="M1782.88 1421.89H1716.11C1701.19 1421.89 1686.89 1427.82 1676.34 1438.36C1665.8 1448.91 1659.87 1463.22 1659.87 1478.13C1659.87 1493.05 1665.8 1507.35 1676.34 1517.9C1686.89 1528.45 1701.19 1534.38 1716.11 1534.38H1782.88C1797.8 1534.38 1812.1 1528.45 1822.65 1517.9C1833.19 1507.35 1839.12 1493.05 1839.12 1478.13C1839.12 1463.22 1833.19 1448.91 1822.65 1438.36C1812.1 1427.82 1797.8 1421.89 1782.88 1421.89Z" fill="#76227E"/>
<path id="Vector_27" d="M1997.28 1421.89H1930.5C1915.59 1421.89 1901.28 1427.82 1890.74 1438.36C1880.19 1448.91 1874.27 1463.22 1874.27 1478.13C1874.27 1493.05 1880.19 1507.35 1890.74 1517.9C1901.28 1528.45 1915.59 1534.38 1930.5 1534.38H1997.28C2012.2 1534.38 2026.5 1528.45 2037.04 1517.9C2047.59 1507.35 2053.52 1493.05 2053.52 1478.13C2053.52 1463.22 2047.59 1448.91 2037.04 1438.36C2026.5 1427.82 2012.2 1421.89 1997.28 1421.89Z" fill="#76227E"/>
<path id="Vector_28" d="M2211.68 1421.89H2144.9C2129.98 1421.89 2115.68 1427.82 2105.13 1438.36C2094.59 1448.91 2088.66 1463.22 2088.66 1478.13C2088.66 1493.05 2094.59 1507.35 2105.13 1517.9C2115.68 1528.45 2129.98 1534.38 2144.9 1534.38H2211.68C2226.59 1534.38 2240.89 1528.45 2251.44 1517.9C2261.99 1507.35 2267.91 1493.05 2267.91 1478.13C2267.91 1463.22 2261.99 1448.91 2251.44 1438.36C2240.89 1427.82 2226.59 1421.89 2211.68 1421.89Z" fill="#76227E"/>
<path id="Vector_29" d="M1632.63 1697.85H908.606C893.692 1697.85 879.388 1703.77 868.842 1714.32C858.296 1724.87 852.371 1739.17 852.371 1754.09C852.371 1769.01 858.296 1783.31 868.842 1793.86C879.388 1804.41 893.692 1810.33 908.606 1810.33H1632.63C1647.55 1810.33 1661.85 1804.41 1672.4 1793.86C1682.94 1783.31 1688.87 1769.01 1688.87 1754.09C1688.87 1739.17 1682.94 1724.87 1672.4 1714.32C1661.85 1703.77 1647.55 1697.85 1632.63 1697.85Z" fill="#76227E"/>
</g>
<g id="tecla1">
<path id="Vector_30" d="M825.132 1300.62H758.353C743.439 1300.62 729.135 1306.54 718.589 1317.09C708.043 1327.64 702.118 1341.94 702.118 1356.86C702.118 1371.78 708.043 1386.08 718.589 1396.63C729.135 1407.18 743.439 1413.1 758.353 1413.1H825.132C840.047 1413.1 854.35 1407.18 864.896 1396.63C875.443 1386.08 881.367 1371.78 881.367 1356.86C881.367 1341.94 875.443 1327.64 864.896 1317.09C854.35 1306.54 840.047 1300.62 825.132 1300.62Z" fill="#D00F55"/>
</g>
<g id="hoja">
<path id="Vector_31" d="M1964.35 1170.55H576.884C554.875 1170.53 533.776 1161.77 518.214 1146.21C502.651 1130.65 493.898 1109.54 493.873 1087.53L493.964 1086.74C543.049 874.325 543.031 608.037 493.906 248.713L493.873 248.235C493.898 226.224 502.652 205.122 518.214 189.558C533.776 173.993 554.875 165.238 576.884 165.213H1964.35C1986.36 165.238 2007.46 173.993 2023.02 189.558C2038.59 205.122 2047.34 226.224 2047.36 248.236L2047.29 248.97C1987.92 525.09 1987.92 810.678 2047.29 1086.8L2047.36 1087.53C2047.34 1109.54 2038.59 1130.65 2023.02 1146.21C2007.46 1161.77 1986.36 1170.53 1964.35 1170.55Z" fill="white"/>
</g>
<path id="Vector_32" d="M1964.35 1170.55H576.884C554.875 1170.53 533.776 1161.77 518.214 1146.21C502.651 1130.65 493.898 1109.54 493.873 1087.53L493.964 1086.74C543.049 874.325 543.031 608.037 493.906 248.713L493.873 248.235C493.898 226.224 502.652 205.122 518.214 189.558C533.776 173.993 554.875 165.238 576.884 165.213H1964.35C1986.36 165.238 2007.46 173.993 2023.02 189.558C2038.59 205.122 2047.34 226.224 2047.36 248.236L2047.29 248.97C1987.92 525.09 1987.92 810.678 2047.29 1086.8L2047.36 1087.53C2047.34 1109.54 2038.59 1130.65 2023.02 1146.21C2007.46 1161.77 1986.36 1170.53 1964.35 1170.55ZM500.904 1087.93C501.031 1108.01 509.09 1127.22 523.322 1141.38C537.555 1155.54 556.808 1163.5 576.884 1163.52H1964.35C1984.43 1163.5 2003.69 1155.54 2017.93 1141.37C2032.16 1127.2 2040.21 1107.98 2040.33 1087.9C1980.86 811.048 1980.86 524.72 2040.33 247.868C2040.21 227.785 2032.16 208.564 2017.93 194.397C2003.69 180.23 1984.43 172.267 1964.35 172.244H576.884C556.78 172.267 537.503 180.248 523.266 194.443C509.028 208.638 500.988 227.893 500.902 247.999C550.082 607.843 550.086 874.773 500.904 1087.93Z" fill="#76227E"/>
<g id="lineas">
<path id="Vector_33" d="M1818.91 413.033H697.725C691.666 413.033 685.855 410.626 681.571 406.341C677.286 402.056 674.879 396.245 674.879 390.185C674.879 384.125 677.286 378.313 681.571 374.028C685.855 369.743 691.666 367.336 697.725 367.336H1818.91C1824.97 367.336 1830.78 369.743 1835.06 374.028C1839.35 378.313 1841.76 384.125 1841.76 390.185C1841.76 396.245 1839.35 402.056 1835.06 406.341C1830.78 410.626 1824.97 413.033 1818.91 413.033Z" fill="#76227E"/>
<path id="Vector_34" d="M1818.91 523.762H697.725C691.666 523.762 685.855 521.354 681.571 517.069C677.286 512.784 674.879 506.973 674.879 500.913C674.879 494.853 677.286 489.041 681.571 484.756C685.855 480.472 691.666 478.064 697.725 478.064H1818.91C1824.97 478.064 1830.78 480.472 1835.06 484.756C1839.35 489.041 1841.76 494.853 1841.76 500.913C1841.76 506.973 1839.35 512.784 1835.06 517.069C1830.78 521.354 1824.97 523.762 1818.91 523.762Z" fill="#76227E"/>
<path id="Vector_35" d="M1818.91 634.49H697.725C691.666 634.49 685.855 632.082 681.571 627.798C677.286 623.513 674.879 617.701 674.879 611.641C674.879 605.581 677.286 599.77 681.571 595.485C685.855 591.2 691.666 588.792 697.725 588.792H1818.91C1824.97 588.792 1830.78 591.2 1835.06 595.485C1839.35 599.77 1841.76 605.581 1841.76 611.641C1841.76 617.701 1839.35 623.513 1835.06 627.798C1830.78 632.082 1824.97 634.49 1818.91 634.49Z" fill="#76227E"/>
<path id="Vector_36" d="M1818.91 745.218H697.725C691.666 745.218 685.855 742.811 681.571 738.526C677.286 734.241 674.879 728.429 674.879 722.369C674.879 716.309 677.286 710.498 681.571 706.213C685.855 701.928 691.666 699.521 697.725 699.521H1818.91C1824.97 699.521 1830.78 701.928 1835.06 706.213C1839.35 710.498 1841.76 716.309 1841.76 722.369C1841.76 728.429 1839.35 734.241 1835.06 738.526C1830.78 742.811 1824.97 745.218 1818.91 745.218Z" fill="#76227E"/>
<path id="Vector_37" d="M1818.91 855.946H697.725C691.666 855.946 685.855 853.539 681.571 849.254C677.286 844.969 674.879 839.157 674.879 833.097C674.879 827.038 677.286 821.226 681.571 816.941C685.855 812.656 691.666 810.249 697.725 810.249H1818.91C1824.97 810.249 1830.78 812.656 1835.06 816.941C1839.35 821.226 1841.76 827.038 1841.76 833.097C1841.76 839.157 1839.35 844.969 1835.06 849.254C1830.78 853.539 1824.97 855.946 1818.91 855.946Z" fill="#76227E"/>
</g>
<g id="linea1">
<path id="Vector_38" d="M1200.33 966.674H697.725C691.666 966.674 685.855 964.267 681.571 959.982C677.286 955.697 674.879 949.885 674.879 943.825C674.879 937.766 677.286 931.954 681.571 927.669C685.855 923.384 691.666 920.977 697.725 920.977H1200.33C1206.38 920.977 1212.19 923.384 1216.48 927.669C1220.76 931.954 1223.17 937.766 1223.17 943.825C1223.17 949.885 1220.76 955.697 1216.48 959.982C1212.19 964.267 1206.38 966.674 1200.33 966.674Z" fill="#D00F55"/>
</g>
<g id="triangulo">
<path id="Vector_39" d="M1264.23 1140.68H1171.71C1170.31 1140.66 1168.92 1140.33 1167.67 1139.71C1166.41 1139.09 1165.3 1138.2 1164.44 1137.09C1163.42 1135.79 1162.7 1134.28 1162.33 1132.67C1161.97 1131.06 1161.97 1129.38 1162.33 1127.77L1205.86 930.757C1206.21 928.546 1207.33 926.528 1209.02 925.061C1210.7 923.593 1212.86 922.769 1215.09 922.735C1217.33 922.701 1219.51 923.459 1221.24 924.874C1222.97 926.29 1224.15 928.273 1224.56 930.472L1273.54 1127.48C1273.95 1129.11 1273.99 1130.81 1273.65 1132.46C1273.31 1134.1 1272.61 1135.65 1271.58 1136.99C1270.72 1138.12 1269.61 1139.04 1268.33 1139.68C1267.06 1140.32 1265.65 1140.66 1264.23 1140.68Z" fill="#76227E"/>
</g>
<g id="teclado">
<path id="Vector_40" d="M2297.19 1877.12H240.81C204.802 1877.12 169.254 1869.04 136.782 1853.48C104.31 1837.92 75.7416 1815.27 53.181 1787.21C30.6205 1759.14 14.6423 1726.37 6.42315 1691.31C-1.79599 1656.24 -2.04668 1619.79 5.68949 1584.61L97.5415 1167.06H2440.46L2532.31 1584.61C2540.05 1619.79 2539.8 1656.24 2531.58 1691.31C2523.36 1726.37 2507.38 1759.14 2484.82 1787.21C2462.26 1815.27 2433.69 1837.92 2401.22 1853.48C2368.75 1869.04 2333.2 1877.12 2297.19 1877.12ZM103.191 1174.09L12.554 1586.12C5.04393 1620.27 5.28748 1655.66 13.2667 1689.7C21.246 1723.74 36.7578 1755.55 58.6596 1782.8C80.5614 1810.05 108.296 1832.03 139.819 1847.14C171.343 1862.25 205.854 1870.09 240.81 1870.09H2297.19C2332.15 1870.09 2366.66 1862.25 2398.18 1847.14C2429.7 1832.03 2457.44 1810.05 2479.34 1782.8C2501.24 1755.55 2516.75 1723.74 2524.73 1689.7C2532.71 1655.66 2532.96 1620.27 2525.45 1586.12L2434.81 1174.09H103.191Z" fill="#F2F2F2"/>
<path id="Vector_41" d="M2426.95 1214.49H114.287C101.703 1214.49 89.634 1209.49 80.7357 1200.59C71.8374 1191.7 66.8384 1179.63 66.8384 1167.04C66.8384 1154.45 71.8374 1142.38 80.7357 1133.48C89.634 1124.58 101.703 1119.58 114.287 1119.58H2426.95C2439.54 1119.58 2451.6 1124.58 2460.5 1133.48C2469.4 1142.38 2474.4 1154.45 2474.4 1167.04C2474.4 1179.63 2469.4 1191.7 2460.5 1200.59C2451.6 1209.49 2439.54 1214.49 2426.95 1214.49Z" fill="#F2F2F2"/>
</g>
<path id="Vector_42" d="M2134.09 1095.66L2100.35 1095.65L2084.29 965.468L2134.1 965.472L2134.09 1095.66Z" fill="#FFB6B6"/>
<path id="Vector_43" d="M2142.7 1128.37L2033.89 1128.37V1126.99C2033.89 1115.76 2038.35 1104.98 2046.29 1097.04C2054.23 1089.1 2065.01 1084.63 2076.24 1084.63L2096.12 1069.55L2133.2 1084.64L2142.7 1084.64L2142.7 1128.37Z" fill="#2F2E41"/>
<path id="Vector_44" d="M2439.02 1051.77L2408.82 1066.83L2336.38 957.478L2380.96 935.259L2439.02 1051.77Z" fill="#FFB6B6"/>
<path id="Vector_45" d="M2461.31 1077.22L2363.92 1125.76L2363.31 1124.53C2358.3 1114.47 2357.49 1102.84 2361.05 1092.19C2364.62 1081.53 2372.27 1072.73 2382.32 1067.72L2393.39 1045.35L2433.31 1042.31L2441.81 1038.07L2461.31 1077.22Z" fill="#2F2E41"/>
<path id="Vector_46" d="M2119.14 504.402L2305.23 510.916L2319.14 536.759C2319.14 536.759 2333.71 642.493 2326.25 649.958C2318.79 657.422 2315.05 657.422 2318.79 670.485C2322.52 683.548 2332.17 808.358 2332.17 808.358C2332.17 808.358 2409.04 967.828 2412.77 977.159C2416.5 986.489 2420.23 982.757 2416.5 986.489C2413.2 990.054 2410.08 993.791 2407.17 997.686H2346.35C2346.35 997.686 2313.6 915.07 2283.63 883.114C2257.16 854.899 2240.4 818.963 2235.79 780.548L2210.57 661.154L2156.46 844.033C2156.46 844.033 2147.13 1025.04 2148.99 1034.38L2150.86 1043.71L2079.18 1044.51C2079.18 1044.51 2071.71 1028.78 2075.44 1023.18C2079.18 1017.58 2078.95 1019.11 2074.4 1009.95C2069.85 1000.79 2071.71 985.261 2071.71 985.261C2071.71 985.261 2098.62 618.234 2098.62 612.636C2098.76 609.755 2098.23 606.881 2097.07 604.241V596.642L2104.21 569.715L2119.14 504.402Z" fill="#2F2E41"/>
<path id="Vector_47" d="M2199.37 166.725C2187.26 173.927 2180.02 187.16 2175.86 200.625C2168.16 225.554 2163.52 251.328 2162.05 277.378L2157.66 355.368C2155.47 405.7 2141.47 454.81 2116.8 498.729C2114.96 502.073 2113.92 505.79 2113.74 509.598C2113.57 513.406 2114.26 517.205 2115.77 520.704C2117.28 524.204 2119.57 527.312 2122.47 529.793C2125.36 532.275 2128.78 534.063 2132.47 535.022C2199.91 552.722 2327.65 530.499 2327.65 530.499C2327.65 530.499 2333.09 528.685 2327.65 523.244C2322.21 517.802 2310 490.594 2310 490.594L2324.51 395.273L2342.65 203.003C2320.89 175.795 2277.12 159.756 2277.12 159.756L2265.81 139.396L2209.26 143.92L2199.37 166.725Z" fill="#76227E"/>
<path id="Vector_48" d="M2235.27 127.564C2265.27 127.564 2289.59 103.241 2289.59 73.2359C2289.59 43.2311 2265.27 18.9074 2235.27 18.9074C2205.27 18.9074 2180.95 43.2311 2180.95 73.2359C2180.95 103.241 2205.27 127.564 2235.27 127.564Z" fill="#FFB8B8"/>
<path id="Vector_49" d="M2302.2 70.01C2299.77 81.0175 2295.4 91.5021 2289.28 100.968C2287.66 104.196 2285.23 106.952 2282.23 108.971C2280.72 109.944 2278.91 110.355 2277.12 110.131C2275.33 109.908 2273.68 109.064 2272.45 107.747L2271.12 106.67C2273.72 105.073 2276.03 103.064 2277.98 100.723C2278.94 99.5484 2279.61 98.1605 2279.93 96.675C2280.25 95.1895 2280.21 93.6492 2279.81 92.1822C2279.34 90.7355 2278.33 89.527 2276.99 88.8105C2275.65 88.0941 2274.08 87.9255 2272.62 88.3402C2269.44 89.5883 2267.5 94.1892 2264.17 93.4795C2261.48 92.8921 2260.92 89.3436 2260.92 86.5537C2261.02 71.9678 2253.97 51.2394 2248.51 51.8757C2243 52.1771 2237.48 51.4382 2232.24 49.6976C2227 47.954 2221.46 47.2474 2215.95 47.6173C2215.55 47.6663 2215.16 47.7398 2214.75 47.8132C2213.86 45.0419 2212.65 42.3878 2211.13 39.9085C2211.3 42.9013 2211.15 45.9039 2210.68 48.8655C2206.3 50.6747 2201.76 52.1074 2197.13 53.1482C2192.09 53.858 2181 68.9332 2180.49 67.3914C2179.61 64.6202 2178.39 61.966 2176.87 59.4867C2177.04 62.4796 2176.89 65.4822 2176.43 68.4437C2176.4 68.5661 2176.4 68.664 2176.38 68.7864C2173.93 65.5313 2172.44 61.5669 2173.27 64.6015C2165.07 46.0512 2168.25 32.7625 2181.15 17.1243C2183.66 13.7617 2186.99 11.0924 2190.82 9.36626C2192.73 8.5244 2194.83 8.19025 2196.92 8.39602C2199 8.60178 2200.99 9.34053 2202.71 10.5411C2207.97 5.71829 2214.42 2.38997 2221.4 0.901107C2228.38 -0.587752 2235.63 -0.183008 2242.4 2.0734C2255.83 6.74778 2266.18 9.48874 2268.24 23.5851C2273.84 22.9721 2279.51 23.9564 2284.58 26.4246C2289.65 28.8928 2293.92 32.7442 2296.89 37.5345C2302.68 47.3068 2304.58 58.9021 2302.2 70.01Z" fill="#2F2E41"/>
<path id="Vector_50" d="M2360.17 423.046L2360.26 313.973L2283.53 319.702L2306.15 388.495L2236.65 513.007C2231.52 514.16 2226.83 516.782 2223.16 520.554C2219.48 524.326 2216.99 529.085 2215.98 534.25C2214.96 539.416 2215.47 544.765 2217.45 549.645C2219.42 554.525 2222.77 558.725 2227.09 561.734C2231.41 564.743 2236.51 566.429 2241.77 566.589C2247.03 566.748 2252.22 565.373 2256.72 562.632C2261.21 559.89 2264.81 555.9 2267.07 551.148C2269.34 546.397 2270.17 541.089 2269.47 535.871L2360.17 423.046Z" fill="#FFB6B6"/>
<path id="Vector_51" d="M2337.19 197.882C2367.22 210.817 2374.01 406.172 2367.26 405.064C2348.07 401.913 2309.57 383.645 2298.06 389.057C2291.48 392.152 2284.24 336.112 2284.24 336.112C2284.24 336.112 2277.27 304.736 2269.1 264.188C2266.57 252.768 2266.98 240.895 2270.28 229.674C2273.58 218.453 2279.66 208.25 2287.97 200.014C2287.97 200.014 2307.16 184.947 2337.19 197.882Z" fill="#76227E"/>
<path id="Vector_52" d="M482.699 1403.23C480.711 1401.41 479.145 1399.18 478.111 1396.7C477.077 1394.21 476.6 1391.53 476.715 1388.84C476.83 1386.15 477.533 1383.52 478.774 1381.13C480.016 1378.74 481.766 1376.65 483.901 1375.01L463.286 1312.91L496.123 1321.73L510.666 1379.36C513.181 1383.13 514.226 1387.69 513.603 1392.18C512.979 1396.67 510.731 1400.77 507.284 1403.71C503.836 1406.66 499.43 1408.23 494.899 1408.14C490.367 1408.05 486.027 1406.3 482.699 1403.23Z" fill="#FFB6B6"/>
<path id="Vector_53" d="M542.214 1065.78C547.663 1068.91 579.9 1061.16 586.196 1063.37C582.72 1084.57 601.596 1076.62 581.098 1104.47C560.6 1132.32 519.315 1215.83 509.937 1247.04C500.558 1278.25 509.841 1322.23 508.436 1337.02C507.757 1345.59 507.799 1354.2 508.562 1362.77C497.488 1362.63 486.572 1364.92 475.324 1363.46C463.329 1329.51 455.264 1281.19 449.787 1254.49C444.311 1227.78 444.111 1239.08 446.622 1225.72C449.134 1212.37 449.742 1222.07 447.104 1209.3C444.466 1196.52 455.136 1180.47 464.996 1171.32C469.247 1159.09 474.741 1147.69 478.95 1135.59C509.791 1108.68 511.818 1093.14 542.214 1065.78Z" fill="#3F3D56"/>
<path id="Vector_54" d="M830.886 1363.85C828.222 1364.24 825.506 1364.03 822.93 1363.25C820.354 1362.47 817.981 1361.13 815.978 1359.33C813.974 1357.53 812.389 1355.32 811.335 1352.84C810.28 1350.36 809.781 1347.69 809.873 1345L748.828 1321.44L776.51 1301.69L830.236 1327.09C834.745 1327.54 838.931 1329.64 842 1332.97C845.069 1336.31 846.809 1340.65 846.889 1345.18C846.969 1349.71 845.385 1354.12 842.435 1357.56C839.486 1361 835.377 1363.24 830.886 1363.85Z" fill="#FFB6B6"/>
<path id="Vector_55" d="M608.232 1103.43C614.107 1101.2 628.621 1071.39 634.323 1067.93C648.484 1084.09 654.339 1064.46 662.81 1097.99C671.28 1131.52 709.5 1216.47 727.631 1243.55C745.761 1270.63 785.613 1291.42 796.138 1301.9C802.323 1307.87 808.997 1313.31 816.092 1318.17C808.945 1326.63 803.782 1336.52 795.499 1344.27C761.672 1331.96 719.247 1307.47 695.153 1294.73C671.058 1281.99 679.648 1289.32 670.937 1278.89C662.226 1268.47 670.103 1274.16 658.565 1268.08C647.027 1262 641.42 1243.56 640.623 1230.13C633.885 1219.07 628.575 1207.58 621.908 1196.64C620.74 1155.73 610.03 1144.28 608.232 1103.43Z" fill="#3F3D56"/>
<path id="Vector_56" d="M654.164 1287.93L684.629 1423.9L489.41 1411.75L542.496 1278.21L654.164 1287.93Z" fill="#FFB6B6"/>
<path id="Vector_57" d="M621.657 1915.48L643.585 1915.48L654.017 1830.88H621.653L621.657 1915.48Z" fill="#FFB6B6"/>
<path id="Vector_58" d="M614.23 1904.66L648.896 1902.59V1917.44L681.853 1940.21C683.481 1941.33 684.707 1942.95 685.352 1944.82C685.997 1946.69 686.027 1948.72 685.439 1950.61C684.85 1952.49 683.673 1954.15 682.079 1955.32C680.486 1956.49 678.559 1957.12 676.581 1957.12H635.311L628.197 1942.43L625.42 1957.12H609.859L614.23 1904.66Z" fill="#2F2E41"/>
<path id="Vector_59" d="M414.399 1904.57L435.828 1909.22L463.957 1828.76L432.328 1821.9L414.399 1904.57Z" fill="#FFB6B6"/>
<path id="Vector_60" d="M409.434 1892.42L443.75 1897.75L440.601 1912.26L467.983 1941.5C469.336 1942.94 470.192 1944.78 470.426 1946.75C470.66 1948.71 470.26 1950.7 469.284 1952.42C468.308 1954.14 466.808 1955.5 465.002 1956.31C463.196 1957.12 461.18 1957.33 459.247 1956.91L418.915 1948.16L415.077 1932.29L409.248 1946.06L394.042 1942.76L409.434 1892.42Z" fill="#2F2E41"/>
<path id="Vector_61" d="M689.612 1537.6C674.222 1622.19 670.375 1658.71 670.375 1658.71C670.375 1658.71 681.917 1672.17 674.222 1679.87C666.527 1687.56 674.222 1702.93 674.222 1702.93L656.92 1889.42L642.991 1887.16L609.439 1881.77L597.337 1879.81L605.032 1704.87C605.032 1704.87 597.337 1689.47 601.185 1685.63C605.032 1681.78 597.337 1658.71 597.337 1658.71L587.729 1476.07L528.126 1676.02C528.126 1676.02 533.908 1683.71 528.126 1689.47C522.365 1695.24 510.844 1724.09 510.844 1724.09L475.4 1848.12L472.391 1858.66L453.906 1855.2L433.787 1851.41L430.09 1850.73L423.513 1849.48L419.278 1848.68L417.838 1848.43L410.874 1847.11L412.981 1837.76L414.077 1832.84L444.061 1699.64L444.749 1696.57L445.48 1693.32C445.48 1693.32 441.632 1683.71 447.393 1677.93C449.078 1676.17 450.309 1674.02 450.979 1671.68C451.65 1669.33 451.739 1666.86 451.24 1664.47C451.052 1664.27 450.879 1664.06 450.725 1663.83C450.044 1662.89 449.575 1661.82 449.349 1660.69C449.082 1658.88 449.295 1657.04 449.967 1655.34C450.638 1653.64 451.745 1652.15 453.175 1651.02C454.27 1649.85 455.19 1648.53 455.905 1647.1C461.751 1636.03 464.696 1612.58 464.696 1612.58C464.696 1612.58 469.898 1426.82 486.921 1398.44C487.824 1396.96 505.896 1368.48 506.841 1367.9C526.057 1356.38 675.767 1372.3 675.767 1372.3C675.767 1372.3 684.835 1396.66 685.243 1399.2C687.457 1413.45 702.659 1465.84 689.612 1537.6Z" fill="#2F2E41"/>
<path id="Vector_62" d="M644.122 1090.15C644.122 1090.15 647.362 1073.34 616.234 1042.2C599.754 1036.71 571.201 1039.91 561.303 1042.2C515.526 1102.64 523.723 1091.97 511.807 1125.74C508.661 1133.34 507.537 1141.62 508.545 1149.78C514.038 1177.25 522.956 1318.25 521.125 1325.58C519.294 1332.9 506.477 1342.06 519.294 1342.06C532.111 1342.06 697.402 1339.17 693.74 1333.67C690.078 1328.18 644.122 1090.15 644.122 1090.15Z" fill="#3F3D56"/>
<path id="Vector_63" d="M592.494 1031.64C621.489 1031.64 644.995 1008.13 644.995 979.135C644.995 950.136 621.489 926.627 592.494 926.627C563.499 926.627 539.993 950.136 539.993 979.135C539.993 1008.13 563.499 1031.64 592.494 1031.64Z" fill="#FFB6B6"/>
<path id="Vector_64" d="M548.014 998.989C547.727 1005.36 543.736 1010.85 540.656 1016.42C535.283 1026.37 532.416 1037.48 532.304 1048.79C532.191 1060.09 534.837 1071.26 540.01 1081.31C544.296 1089.44 550.229 1096.7 553.629 1105.23C555.266 1108.84 556.095 1112.76 556.058 1116.72C556.022 1120.68 555.12 1124.58 553.417 1128.16C544.214 1119.3 539.724 1123.98 529.274 1116.25C533.384 1127.77 529.88 1128.14 534.006 1139.65C516.27 1144.71 498.528 1149.79 480.78 1154.88C491.676 1146.04 499.372 1133.86 502.686 1120.22C506.001 1106.58 504.752 1092.23 499.131 1079.37C492.643 1065.46 481.046 1053.99 476.825 1039.2C474.526 1031.2 474.568 1022.71 476.944 1014.73C479.32 1006.75 483.931 999.62 490.232 994.179C496.533 988.739 504.26 985.218 512.499 984.031C520.738 982.845 529.144 984.043 536.724 987.485C542.69 985.78 548.303 992.722 548.014 998.989Z" fill="#2F2E41"/>
<path id="Vector_65" d="M613.957 920.283C606.897 904.854 588.269 907.993 571.425 910.028C563.014 911.326 555.047 914.655 548.212 919.728C541.378 924.8 535.883 931.462 532.204 939.137C525.005 954.692 523.628 972.315 528.326 988.799C530.845 1000.03 536.859 1010.17 545.502 1017.76C554.397 1024.91 596.214 1041.83 599.695 1027.26C595.343 1046.27 584.021 1057.1 596.98 1071.67C603.692 1051.5 632.075 1032.35 638.788 1012.18C639.798 1009.14 635.649 973.469 636.659 970.433C638.789 964.035 640.922 957.625 642.461 951.059C644.394 942.812 645.138 933.354 640.015 926.607C634.893 919.86 621.988 919.598 619.399 927.664" fill="#2F2E41"/>
<path id="Vector_66" d="M605.504 984.496L603.26 970.207C604.785 952.436 602.296 924.169 613.957 920.283L621.088 927.415C616.577 928.919 607.998 955.494 605.504 984.496Z" fill="#FF6584"/>
<path id="Vector_67" d="M1116.93 1957.82C1116.93 1958.37 1116.82 1958.91 1116.61 1959.42C1116.4 1959.93 1116.1 1960.39 1115.71 1960.78C1115.32 1961.17 1114.86 1961.48 1114.35 1961.69C1113.84 1961.89 1113.3 1962 1112.75 1962H127.615C126.505 1962 125.442 1961.56 124.657 1960.77C123.873 1959.99 123.432 1958.93 123.432 1957.82C123.432 1956.71 123.873 1955.64 124.657 1954.86C125.442 1954.07 126.505 1953.63 127.615 1953.63H1112.75C1113.3 1953.63 1113.84 1953.74 1114.35 1953.95C1114.86 1954.16 1115.32 1954.47 1115.71 1954.86C1116.1 1955.24 1116.4 1955.71 1116.61 1956.21C1116.82 1956.72 1116.93 1957.27 1116.93 1957.82Z" fill="#CCCCCC"/>
</g>
<defs>
<clipPath id="clip0_9_2">
<rect width="2538" height="1962" fill="white"/>
</clipPath>
</defs>
</svg>
